# AST/ASF file generated using VICON BodyLanguage
# -----------------------------------------------
:version 1.10
:name VICON
:units
  mass 1.0
  length 0.45
  angle deg
:documentation
   .ast/.asf automatically generated from VICON data using
   VICON BodyBuilder and BodyLanguage model FoxedUp or BRILLIANT.MOD
:root
   order TX TY TZ RX RY RZ
   axis XYZ
   position 0 0 0  
   orientation 0 0 0 
:bonedata
  begin
     id 1 
     name lhipjoint
     direction 0.621036 -0.695554 0.361275 
     length 2.46325 
     axis 0 0 0  XYZ
  end
  begin
     id 2 
     name lfemur
     direction 0.34202 -0.939693 0  
     length 6.54784  
     axis 0 0 20  XYZ
    dof rx ry rz
    limits (-160.0 20.0)
           (-70.0 70.0)
           (-60.0 70.0)
  end
  begin
     id 3 
     name ltibia
     direction 0.34202 -0.939693 0   
     length 7.84737   
     axis 0 0 20   XYZ
    dof rx
    limits (-10.0 170.0)
  end
  begin
     id 4 
     name lfoot
     direction 0.0790693 -0.217241 0.97291   
     length 2.59747   
     axis -90 7.62852e-016 20   XYZ
    dof rx rz
    limits (-45.0 90.0)
           (-70.0 20.0)
  end
  begin
     id 5 
     name ltoes
     direction 1.53572e-011 -4.21898e-011 1   
     length 1.29919   
     axis -90 7.62852e-016 20   XYZ
    dof rx
    limits (-90.0 20.0)
  end
  begin
     id 6 
     name rhipjoint
     direction -0.602353 -0.708375 0.367935   
     length 2.41867  
     axis 0 0 0  XYZ 
  end
  begin
     id 7 
     name rfemur
     direction -0.34202 -0.939693 0   
     length 6.92065   
     axis 0 0 -20   XYZ
    dof rx ry rz
    limits (-160.0 20.0)
           (-70.0 70.0)
           (-70.0 60.0)
  end
  begin
     id 8 
     name rtibia
     direction -0.34202 -0.939693 0   
     length 7.88883   
     axis 0 0 -20   XYZ
    dof rx
    limits (-10.0 170.0)
 end
 begin
     id 9 
     name rfoot
     direction -0.0768692 -0.211196 0.974416   
     length 2.43714  
     axis -90 -7.62852e-016 -20   XYZ
    dof rx rz
    limits (-45.0 90.0)
           (-20.0 70.0)
  end
  begin
     id 10 
     name rtoes
     direction -1.53575e-011 -4.21933e-011 1   
     length 1.22113   
     axis -90 -7.62852e-016 -20   XYZ
    dof rx
    limits (-90.0 20.0)
  end
  begin
     id 11 
     name lowerback
     direction 0.0197937 0.98943 -0.143655   
     length 2.16931   
     axis 0 0 0   XYZ
    dof rx ry rz
    limits (-20.0 45.0)
           (-30.0 30.0)
           (-30.0 30.0)
  end
  begin
     id 12 
     name upperback
     direction -0.00183968 0.999975 0.00684288   
     length 2.17221   
     axis 0 0 0   XYZ
    dof rx ry rz
    limits (-20.0 45.0)
           (-30.0 30.0)
           (-30.0 30.0)
  end
  begin
     id 13 
     name thorax
     direction -0.00950244 0.997208 0.0740685   
     length 2.22549   
     axis 0 0 0   XYZ
    dof rx ry rz
    limits (-20.0 45.0)
           (-30.0 30.0)
           (-30.0 30.0)
  end
  begin
     id 14 
     name lowerneck
     direction 0.0218238 0.996215 0.0841425   
     length 1.77269   
     axis 0 0 0   XYZ
    dof rx ry rz
    limits (-20.0 45.0)
           (-30.0 30.0)
           (-30.0 30.0)
  end
  begin
     id 15 
     name upperneck
     direction -0.00430652 0.994214 -0.107332   
     length 1.76534   
     axis 0 0 0   XYZ
    dof rx ry rz
    limits (-20.0 45.0)
           (-30.0 30.0)
           (-30.0 30.0)
  end
  begin
     id 16
     name head
     direction -0.00328946 0.998959 -0.0454998  
     length 1.82634  
     axis 0 0 0   XYZ
    dof rx ry rz
    limits (-20.0 45.0)
           (-30.0 30.0)
           (-30.0 30.0)
  end
  begin
     id 17 
     name lclavicle
     direction 0.970962 0.239191 0.00450212  
     length 3.84872  
     axis 0 0 0   XYZ
    dof ry rz
    limits (-20.0 10.0)
           (0.0 20.0)
  end
  begin
     id 18 
     name lhumerus
     direction 1 -4.48966e-011 5.74696e-028   
     length 5.22771   
     axis 180 -30 -90   XYZ
    dof rx ry rz
    limits (-60.0 90.0)
           (-90.0 90.0)
           (-90.0 90.0)
  end
  begin
     id 19
     name lradius
     direction 1 -4.4896e-011 4.25109e-027   
     length 3.45251   
     axis 180 -30 -90   XYZ
    dof rx
    limits (-10.0 170.0)
  end
  begin
     id 20
     name lwrist
     direction 1 -4.48971e-011 1.15382e-027   
     length 1.72626   
     axis -5.52449e-016 90 90   XYZ
    dof ry
    limits (-180.0 0.0)
 end
  begin
     id 21 
     name lhand
     direction 1 -4.49034e-011 2.30765e-027   
     length 0.552119   
     axis -1.47248e-015 90 90   XYZ
    dof rx rz
    limits (-90.0 90.0)
           (-45.0 45.0)
  end
  begin
     id 22 
     name lfingers
     direction 1 -4.48951e-011 4.61529e-027   
     length 0.445133   
     axis -2.94495e-015 90 90   XYZ
    dof rx
    limits (0.0 90.0)
  end
  begin
     id 23
     name lthumb
     direction 0.707107 -6.34991e-011 0.707107   
     length 0.639124   
     axis -90 45 2.85299e-015   XYZ
    dof rx rz
    limits (-45.0 45.0)
           (-45.0 45.0)
  end
  begin
     id 24 
     name rclavicle
     direction -0.97424 0.222511 -0.0366699   
     length 3.73439  
     axis 0 0 0   XYZ 
    dof ry rz
    limits (-10.0 20.0)
           (-20.0 0.0)
  end
  begin
     id 25 
     name rhumerus
     direction -1 -4.48956e-011 -4.97258e-028  
     length 5.2398   
     axis 180 30 90   XYZ
    dof rx ry rz
    limits (-90.0 60.0)
           (-90.0 90.0)
           (-90.0 90.0)
  end
  begin
     id 26 
     name rradius
     direction -1 -4.4897e-011 -1.72611e-027   
     length 3.48042   
     axis 180 30 90   XYZ
    dof rx
    limits (-10.0 170.0)
  end
  begin
     id 27 
     name rwrist
     direction -1 -4.48976e-011 1.15382e-027   
     length 1.74021   
     axis -5.52449e-016 -90 -90   XYZ
    dof ry
    limits (-180.0 0.0)
  end
  begin
     id 28
     name rhand
     direction -1 -4.48963e-011 2.30765e-027   
     length 0.618713   
     axis -1.47248e-015 -90 -90   XYZ
    dof rx rz
    limits (-90.0 90.0)
           (-45.0 45.0)
  end
  begin
     id 29
     name rfingers
     direction -1 -4.4888e-011 4.61529e-027   
     length 0.498823   
     axis -2.94495e-015 -90 -90   XYZ
    dof rx
    limits (0.0 90.0)
  end
  begin
     id 30
     name rthumb
     direction -0.707107 -6.34968e-011 0.707107   
     length 0.716213   
     axis -90 -45 -2.85299e-015   XYZ
    dof rx rz
    limits (-45.0 45.0)
           (-45.0 45.0)
  end
:hierarchy
  begin
    root lhipjoint rhipjoint lowerback
    lhipjoint lfemur
    lfemur ltibia
    ltibia lfoot
    lfoot ltoes
    rhipjoint rfemur
    rfemur rtibia
    rtibia rfoot
    rfoot rtoes
    lowerback upperback
    upperback thorax
    thorax lowerneck lclavicle rclavicle
    lowerneck upperneck
    upperneck head
    lclavicle lhumerus
    lhumerus lradius
    lradius lwrist
    lwrist lhand lthumb
    lhand lfingers
    rclavicle rhumerus
    rhumerus rradius
    rradius rwrist
    rwrist rhand rthumb
    rhand rfingers
  end

#!OML:ASF G:\JayActor3\Patient Classification 1\Patient 1\Session 5\male.ASF
:FULLY-SPECIFIED
:DEGREES
170
root 48.9679 17.3202 -5.28724 133.429 -87.7729 -135.024
lowerback -1.72314 -0.21609 3.19171
upperback 0.770935 -0.360332 -0.413923
thorax 1.73551 -0.141641 -2.22606
lowerneck -6.2321 -0.115226 1.03548
upperneck 4.67565 -0.435135 2.83143
head 2.56869 -0.112417 0.709466
rclavicle -3.14018e-015 8.94531e-015
rhumerus -34.5704 -12.6204 -83.2047
rradius 26.068
rwrist 2.8739
rhand -18.5087 -7.26963
rfingers 7.12502
rthumb 7.7794 -37.1065
lclavicle -3.14018e-015 8.94531e-015
lhumerus -35.2654 8.65332 80.8141
lradius 26.8168
lwrist 17.2665
lhand -18.099 12.6989
lfingers 7.12502
lthumb 8.17479 42.5207
rfemur -5.23483 1.28062 20.3139
rtibia 31.7085
rfoot -3.94547 -8.53996
rtoes -7.53832
lfemur 0.292442 7.01985 -15.4073
ltibia 20.8201
lfoot 6.21202 0.591729
ltoes -29.676
171
root 48.9566 17.3276 -5.2806 132.604 -87.7045 -134.157
lowerback -1.67551 -0.220593 3.25665
upperback 0.74111 -0.366266 -0.385587
thorax 1.67759 -0.145426 -2.23316
lowerneck -6.23906 -0.0901096 1.05362
upperneck 4.73718 -0.402867 2.79738
head 2.59003 -0.0962103 0.697053
rclavicle -1.98474e-015 -1.59028e-015
rhumerus -34.5342 -12.5571 -83.2072
rradius 26.0917
rwrist 2.78869
rhand -18.5414 -7.32087
rfingers 7.12502
rthumb 7.7478 -37.1589
lclavicle -1.98474e-015 -1.59028e-015
lhumerus -35.2285 8.64064 80.8182
lradius 26.886
lwrist 17.3869
lhand -18.1711 12.697
lfingers 7.12502
lthumb 8.10522 42.5215
rfemur -5.23711 1.25527 20.2589
rtibia 31.628
rfoot -3.53793 -8.33209
rtoes -7.43833
lfemur 0.279692 6.99883 -15.3251
ltibia 20.8087
lfoot 6.39094 0.523763
ltoes -29.9124
172
root 48.9456 17.3331 -5.27425 131.835 -87.6385 -133.349
lowerback -1.61787 -0.22502 3.31348
upperback 0.713318 -0.371448 -0.358888
thorax 1.61622 -0.148993 -2.2373
lowerneck -6.26258 -0.0683237 1.06394
upperneck 4.8072 -0.375883 2.77717
head 2.61754 -0.0821336 0.69032
rclavicle -1.40858e-015 9.93923e-016
rhumerus -34.4954 -12.502 -83.2099
rradius 26.106
rwrist 2.72604
rhand -18.5816 -7.39284
rfingers 7.12502
rthumb 7.709 -37.2323
lclavicle -1.40858e-015 9.93923e-016
lhumerus -35.1842 8.61613 80.8217
lradius 26.9375
lwrist 17.4861
lhand -18.2249 12.7013
lfingers 7.12502
lthumb 8.05325 42.5278
rfemur -5.23568 1.26133 20.2154
rtibia 31.5561
rfoot -3.18309 -8.13789
rtoes -7.34769
lfemur 0.280231 6.95433 -15.2495
ltibia 20.7913
lfoot 6.52243 0.480375
ltoes -30.1099
173
root 48.9347 17.3367 -5.26807 131.142 -87.5796 -132.624
lowerback -1.55307 -0.230354 3.35782
upperback 0.68961 -0.377228 -0.333908
thorax 1.55503 -0.152959 -2.23619
lowerneck -6.29877 -0.051023 1.0654
upperneck 4.88559 -0.355399 2.76856
head 2.65045 -0.0709054 0.688679
rclavicle -3.07961e-015 2.78299e-015
rhumerus -34.4558 -12.4505 -83.2129
rradius 26.1092
rwrist 2.68475
rhand -18.6321 -7.44598
rfingers 7.12502
rthumb 7.66022 -37.2872
lclavicle -3.07961e-015 2.78299e-015
lhumerus -35.1315 8.58666 80.8253
lradius 26.968
lwrist 17.5545
lhand -18.2624 12.7088
lfingers 7.12502
lthumb 8.01713 42.5367
rfemur -5.22551 1.29216 20.179
rtibia 31.4932
rfoot -2.88479 -7.96352
rtoes -7.27527
lfemur 0.296359 6.89364 -15.1838
ltibia 20.7693
lfoot 6.61319 0.452027
ltoes -30.2744
174
root 48.9238 17.3388 -5.26215 130.455 -87.5263 -131.913
lowerback -1.4863 -0.238018 3.39092
upperback 0.670847 -0.385789 -0.309121
thorax 1.4977 -0.158321 -2.22903
lowerneck -6.32854 -0.0361334 1.06654
upperneck 4.95278 -0.33775 2.76156
head 2.67846 -0.0612482 0.687424
rclavicle 5.04261e-015 -5.36719e-015
rhumerus -34.4157 -12.3988 -83.2168
rradius 26.0998
rwrist 2.66505
rhand -18.6879 -7.47774
rfingers 7.12502
rthumb 7.60644 -37.321
lclavicle 5.04261e-015 -5.36719e-015
lhumerus -35.0727 8.55867 80.827
lradius 26.9781
lwrist 17.5894
lhand -18.2856 12.7244
lfingers 7.12502
lthumb 7.99474 42.5532
rfemur -5.2052 1.34616 20.154
rtibia 31.4392
rfoot -2.64618 -7.81571
rtoes -7.18683
lfemur 0.324762 6.8258 -15.1225
ltibia 20.7451
lfoot 6.67358 0.431286
ltoes -30.4054
175
root 48.9129 17.3397 -5.25646 129.751 -87.487 -131.192
lowerback -1.42164 -0.248581 3.40485
upperback 0.661202 -0.397977 -0.285489
thorax 1.45079 -0.165387 -2.21242
lowerneck -6.36164 -0.0244625 1.06963
upperneck 5.00682 -0.324202 2.75396
head 2.70273 -0.053754 0.685413
rclavicle 3.10135e-015 4.17448e-015
rhumerus -34.3661 -12.3553 -83.2185
rradius 26.0756
rwrist 2.66888
rhand -18.743 -7.48292
rfingers 7.12502
rthumb 7.55322 -37.3281
lclavicle 3.10135e-015 4.17448e-015
lhumerus -34.9944 8.53554 80.8298
lradius 26.963
lwrist 17.5916
lhand -18.2983 12.7496
lfingers 7.12502
lthumb 7.98247 42.5789
rfemur -5.17748 1.40949 20.1322
rtibia 31.3944
rfoot -2.46096 -7.69512
rtoes -7.07318
lfemur 0.359406 6.76265 -15.0698
ltibia 20.7207
lfoot 6.71558 0.398664
ltoes -30.528
176
root 48.902 17.3396 -5.25095 129.023 -87.462 -130.452
lowerback -1.36189 -0.26256 3.40124
upperback 0.655274 -0.414559 -0.263377
thorax 1.41027 -0.174641 -2.18766
lowerneck -6.37248 -0.013644 1.07662
upperneck 5.03807 -0.310711 2.7421
head 2.7151 -0.0468132 0.681155
rclavicle -5.14511e-015 5.56597e-015
rhumerus -34.3207 -12.3212 -83.2145
rradius 26.0385
rwrist 2.69686
rhand -18.796 -7.47644
rfingers 7.12502
rthumb 7.50205 -37.3234
lclavicle -5.14511e-015 5.56597e-015
lhumerus -34.9111 8.51663 80.8305
lradius 26.9262
lwrist 17.5662
lhand -18.3053 12.7759
lfingers 7.12502
lthumb 7.9757 42.6054
rfemur -5.14085 1.47581 20.1119
rtibia 31.3578
rfoot -2.3261 -7.60037
rtoes -6.91665
lfemur 0.399252 6.70571 -15.026
ltibia 20.6992
lfoot 6.74235 0.354547
ltoes -30.6384
177
root 48.8909 17.3389 -5.24559 128.223 -87.4485 -129.644
lowerback -1.31407 -0.27798 3.38594
upperback 0.656787 -0.433376 -0.243922
thorax 1.38403 -0.184754 -2.15922
lowerneck -6.35992 -0.00270308 1.09119
upperneck 5.02959 -0.295856 2.72704
head 2.7096 -0.0398304 0.674319
rclavicle -1.87758e-015 -3.37934e-015
rhumerus -34.2729 -12.3048 -83.2055
rradius 25.9901
rwrist 2.74435
rhand -18.8409 -7.45507
rfingers 7.12502
rthumb 7.45871 -37.3036
lclavicle -1.87758e-015 -3.37934e-015
lhumerus -34.8134 8.49806 80.8307
lradius 26.8686
lwrist 17.5193
lhand -18.3152 12.8104
lfingers 7.12502
lthumb 7.96609 42.6402
rfemur -5.09961 1.53767 20.0937
rtibia 31.3278
rfoot -2.23387 -7.53183
rtoes -6.70756
lfemur 0.438517 6.65636 -14.9884
ltibia 20.6822
lfoot 6.76216 0.30197
ltoes -30.7377
178
root 48.8795 17.338 -5.24031 127.353 -87.4425 -128.766
lowerback -1.27877 -0.294485 3.36497
upperback 0.663786 -0.454054 -0.228303
thorax 1.37037 -0.195533 -2.13167
lowerneck -6.3346 0.00459693 1.10975
upperneck 5.00011 -0.285574 2.71494
head 2.69468 -0.0353226 0.667392
rclavicle 6.60959e-015 1.39149e-015
rhumerus -34.2227 -12.31 -83.1936
rradius 25.9266
rwrist 2.81149
rhand -18.8856 -7.42014
rfingers 7.12502
rthumb 7.41557 -37.2702
lclavicle 6.60959e-015 1.39149e-015
lhumerus -34.7038 8.48325 80.8258
lradius 26.7918
lwrist 17.4528
lhand -18.3221 12.8414
lfingers 7.12502
lthumb 7.95942 42.6716
rfemur -5.05619 1.58874 20.0781
rtibia 31.3018
rfoot -2.17775 -7.48726
rtoes -6.45606
lfemur 0.473947 6.61379 -14.9548
ltibia 20.6717
lfoot 6.77822 0.248483
ltoes -30.8272
179
root 48.8676 17.337 -5.23498 126.336 -87.4425 -127.741
lowerback -1.25462 -0.312421 3.34512
upperback 0.671568 -0.477041 -0.216604
thorax 1.36361 -0.207299 -2.1089
lowerneck -6.29758 0.00403948 1.12806
upperneck 4.96777 -0.285742 2.70674
head 2.67672 -0.0360352 0.661271
rclavicle -5.88589e-016 -4.96962e-015
rhumerus -34.1839 -12.3285 -83.1802
rradius 25.858
rwrist 2.88524
rhand -18.931 -7.38037
rfingers 7.12502
rthumb 7.3718 -37.2319
lclavicle -5.88589e-016 -4.96962e-015
lhumerus -34.5919 8.47516 80.8133
lradius 26.6993
lwrist 17.369
lhand -18.332 12.857
lfingers 7.12502
lthumb 7.94991 42.6875
rfemur -5.00884 1.62141 20.0653
rtibia 31.2771
rfoot -2.15233 -7.46569
rtoes -6.15579
lfemur 0.503262 6.57969 -14.9224
ltibia 20.6701
lfoot 6.79222 0.194179
ltoes -30.9028
